<svg width="1471" height="864" viewBox="0 0 1471 864" fill="none" xmlns="http://www.w3.org/2000/svg">
<path d="M4.68225 327.5V280V274H22.1823V277H25.6823V280.5H28.6823V284H32.1823V287.5H35.6823V290H38.6823V293.5H42.1823V340H45.1823V343.5H48.6823V349.5H51.6823V353H55.1823V359.5H58.6823V363H61.6823V366H65.1823V369.5H68.6823V372.5H78.1823V366H81.6823V362.5H85.1823V359H88.6823V356H91.1823V353H111.182V356.5H121.182V359.5H130.682V363H137.182V366H143.682V369.5H147.182V405.5H150.682V408.5H177.182V405.5H180.682V402.5H203.182L216.182 430.5H265.003V454L243.182 472.5V494.5L265.003 503.5V518L247.682 548L225.682 526H8.68225V520.5V327.5H4.68225Z" fill="#0A1E3F"/>
<path d="M225.682 526H8.68225V520.5M225.682 526V518.5H221.182V514H216.182V511H213.182V507.5H209.682V504.5H206.682V501H203.182V498H200.182V494.5H196.682V484.5H193.682V481H190.182V478H72.1823V487.5H68.1823V494.5H65.6823V500V503.5H62.1823H58.1823V507.5H55.1823H38.1823V511H22.6823V514H16.1823V518L12.4502 517V520.5H8.68225M225.682 526L247.682 548L265.003 518V503.5L243.182 494.5V472.5L265.003 454V430.5H216.182L203.182 402.5H180.682V405.5H177.182V408.5H150.682V405.5H147.182V369.5H143.682V366H137.182V363H130.682V359.5H121.182V356.5H111.182V353H91.1823V356H88.6823V359H85.1823V362.5H81.6823V366H78.1823V372.5H68.6823V369.5H65.1823V366H61.6823V363H58.6823V359.5H55.1823V353H51.6823V349.5H48.6823V343.5H45.1823V340H42.1823V293.5H38.6823V290H35.6823V287.5H32.1823V284H28.6823V280.5H25.6823V277H22.1823V274H4.68225V280V327.5H8.68225V520.5" stroke="#F5F5F5" stroke-width="2.2"/>
<path d="M567.182 672V666H572.182V652.196L575.182 653V642H579.182V630H581.682V623H595.182V662.5H598.182V701H604.182V704.5H608.682V708.5H614.682V711.5H618.182V716H674.682V724.5V741H670.682V745H667.182V768.5H722.682V823H716.682V836.5H686.682V843H657.182V836.5H649.682V833H644.682H641.182V825.5H637.182V833H624.182V836.5H611.182V840H604.682V846H562.182V813H565.682V810H568.682V806.5H572.182V803H577.682V791H562.182V785.5H555.182V780.5H548.682V741H555.182V738.392L558.512 737.5L559.182 735H562.182V731.5H564.682V727.5H568.682V724.5H572.182V718.5H575.182V675H571.182V672H567.182Z" fill="#0A1E3F" stroke="#F5F5F5" stroke-width="2.2"/>
<path d="M247.682 546L334.682 608M247.682 546L226.682 524H68.1823H8.18225V336L4.68225 331V278.5M247.682 546L263.682 515V506L242.182 492.5V472.5L263.682 454V431.5L287.682 393H316.182L320.682 365.5L343.182 362.5M334.682 608L338.182 621L343.182 624.5V638L345.682 651L358.682 664.5L368.682 674L390.682 680.5V705H385.182V716.5H394.182V720H402.182M334.682 608L345.682 592.5L358.682 579L368.682 562.5M402.182 720V756.5L422.182 789.5L430.682 808L462.682 838L479.682 855.5L501.682 858V862H522.182V846.5H526.182H564.182M402.182 720L408.182 732L419.182 737L440.682 743L462.682 724H501.682L530.682 705L543.182 693L564.182 674M564.182 846.5L563.182 814H566.682V811.5H569.682V807.5H573.682V804.5H579.182V789.5H563.682V784.5H556.182V779.5H549.182V742.5H555.682V738.5H559.682V736H563.182V732.5H565.682V728.5H569.682V725.5H572.682V720H576.682V674H571.182H564.182M564.182 846.5H604.682V838.5H610.182V835.5H622.682V831.5H635.682V824.5H642.182V832.5H650.682V835.5H658.182V842H685.682V835.5H715.682V822.5L718.182 819.5M564.182 674L582.182 621M582.182 621L594.682 575.5V531.5V506M582.182 621L615.182 625M594.682 506H589.682H582.182L564.182 511.5L534.682 524L526.182 527.5L506.682 531.5H501.682V546L513.682 558.5L526.182 575.5L530.682 582.5L522.182 592.5L513.682 612.5L501.682 629L489.182 634L479.682 638H475.682V598L457.682 586.5L440.682 575.5L419.182 592.5L397.182 585L380.182 602.5L376.182 598L368.682 585L372.182 575.5L368.682 562.5M594.682 506L582.182 492.5L575.682 472.5V458L582.182 445.5L594.682 439.5V403L589.682 386.5L582.182 380H556.682L534.682 362.5H506.682L501.682 356L479.682 336M594.682 506L608.682 492.5V478.5L615.182 467.5H625.182M368.682 562.5L338.182 537.5L363.682 511.5V484L380.182 452.5L385.182 445.5H402.182L413.682 458L422.182 472.5H440.682L451.682 467.5L462.682 445.5L451.682 423L479.682 403V336M479.682 336V319.5L468.182 309L457.682 303H445.682M445.682 303L440.682 309L430.682 319.5L419.182 362.5L413.682 372.5L397.182 380L387.182 365.5L368.682 349.5L353.682 380L343.182 362.5M445.682 303V294L440.682 289L422.182 278.5V269.5L405.682 259.5L402.182 242.5M343.182 362.5L320.682 327.5V289L345.682 259.5M345.682 259.5L309.682 252H263.682M345.682 259.5H385.182L393.182 252L402.182 242.5M263.682 252L268.182 278.5L247.682 285L226.682 289L217.682 278.5L190.182 294V331L199.182 345V403L217.682 431.5M263.682 252L258.182 234.5L247.682 213L226.682 185.5L208.182 166.5V130.5L226.682 121.5V105.5H208.182V100H176.182L157.682 82.5L92.6823 141.5H46.6823L18.6823 172.5H13.1823M13.1823 172.5V185.5H8.18225V230H1.18225L4.68225 278.5M13.1823 172.5V121.5V115L34.1823 105.5H50.6823L61.1823 91.5V60.5H66.6823V32.5L92.6823 10.5V-1M4.68225 278.5L5.68225 275H20.6823V278H24.6823V281H27.6823V285H30.6823V288.5H34.1823V291H37.1823V294H41.6823V340.5H44.1823V345H47.6823V351H50.6823V354H53.6823V360H57.1823V364H60.6823V368H63.6823V370.5H67.1823V374H79.6823V368H82.6823V364H85.1823V360H88.1823V357H91.6823V352.5H110.182V357H120.182V360H130.182V364L136.182 365.5V368H142.682V370.5H146.182V406.5H149.682V409H178.182V406.5H182.182V403H186.182M253.182 -1V27.5H268.182L273.682 32.5L282.182 41.5L293.682 54V70.5V79L309.682 82.5V67H343.182L375.682 105.5H385.182H405.682L430.682 111L451.682 130.5V141.5H506.682M506.682 141.5V157L501.682 172.5V185.5L490.682 197.5L468.182 201.5H445.682L419.182 172.5H405.682V185.5L389.682 195V216.5L393.182 230L402.182 242.5M506.682 141.5L520.182 146.5L544.182 166.5L556.682 181L575.682 219H592.182L602.682 197.5L608.682 195M625.182 467.5L629.682 458H654.182L690.682 416H707.182L711.682 423M625.182 467.5L654.182 484L650.682 498L643.182 515L672.182 562.5L683.182 571.5M711.682 423L751.682 386.5V356L733.682 331V309L727.682 303V285L724.682 276V255.5M711.682 423L724.682 445.5L727.682 454L751.682 445.5L757.182 454V484M724.682 255.5L711.682 259.5V252H654.182L638.182 259.5H629.682V195M724.682 255.5H747.682L773.682 266L806.682 276L836.182 289L849.182 276L836.182 259.5V248L849.182 242.5L856.182 231.5H864.182H911.682L953.682 259.5M629.682 195H608.682M629.682 195H643.182L650.682 172.5L668.682 176L690.682 163L711.682 151.5V82.5L719.182 67L727.682 49.5V42.75M608.682 195L594.682 185.5V75L615.182 60.5L638.182 67L654.182 75L672.182 70.5V49.5H683.182M683.182 49.5L677.682 41.5L663.682 27.5L672.182 -1M683.182 49.5L711.682 32.5L727.682 36V42.75M727.682 42.75L777.682 41.5L803.182 82.5L821.182 60.5L875.682 79L880.682 60.5H893.182M893.182 60.5L864.182 23V-1M893.182 60.5V70.5L902.682 82.5L915.682 91.5H939.182L945.682 95L939.182 100L930.682 116.5V157L953.682 176L967.682 185.5L985.682 181L998.682 176H1007.68L1019.18 195M1019.18 195L1069.68 176L1138.68 105.5H1178.68V79L1166.68 60.5V14M1019.18 195V201.5H998.682H989.182V248L982.182 255.5L973.182 259.5H953.682M1166.68 14L1185.68 -1M1166.68 14L1145.68 -1M953.682 259.5L959.682 285L986.182 276L1032.68 269.5L1075.18 327.5V362.5L1040.18 416V445.5M757.182 484H742.182V511.5H747.682L738.682 582.5L727.682 586.5M757.182 484L766.182 492.5H781.182V484V478.5H785.182V463H812.682L836.182 478.5M727.682 586.5L707.182 575.5L703.682 571.5H683.182M727.682 586.5L760.682 612.5M683.182 571.5V592.5M760.682 612.5V621L773.682 634V674L766.182 685.5M760.682 612.5L785.182 575.5L792.182 579H812.682L849.182 524V506L836.182 478.5M766.182 685.5L757.182 674L747.682 669L733.682 682.567L727.682 701L718.682 720L711.682 737L724.682 750.5L718.682 770.5M766.182 685.5L773.682 705H792.182L841.682 780V808M718.682 770.5V819H773.682V808H821.682H841.682M718.682 770.5L666.182 769.5V744H669.682V739.5H673.182L672.182 720L677.682 716M841.682 808H872.682V819H884.182V808L888.182 737L912.182 712V705V649L932.182 642V629L917.682 625L912.182 612.5V598L990.682 527.5L1005.68 515V506L1010.18 498M683.182 592.5L699.682 607.5V662L678.182 685.5L683.182 693V712L677.682 716M683.182 592.5H638.182L629.682 607.5V621H621.182L615.182 625M615.182 625L594.182 624.5V663.5H596.682V702H602.682V705.5H607.182V709.5H613.182V712.5H616.682V716H677.682M836.182 478.5L872.682 458V439.5H923.182L942.682 472.5L946.682 478.5H973.182V472.5H986.182L1010.18 498M1010.18 498H1019.18L1032.68 484V445.5H1040.18M1040.18 445.5H1052.18L1061.68 439.5L1086.68 416V403H1107.18L1117.68 416H1145.68L1161.68 386.5H1178.68L1219.68 431.5H1239.18L1280.68 476.5L1291.68 463L1301.18 467.5L1307.18 455L1318.68 456L1307.18 445.5H1318.68V423L1328.68 389L1351.68 379.5V362.5L1345.18 341.5V331L1363.18 320.5M1363.18 320.5L1351.68 309V276L1318.68 259.5L1307.18 269.5L1280.68 231.5L1318.68 185.5L1363.18 105.5L1328.68 54V32.5L1291.68 -1M1363.18 320.5L1379.68 308.5V285L1397.18 266V248L1409.18 232" stroke="black" stroke-opacity="0.15" stroke-width="2.2"/>
<path d="M596.155 765.867C597.561 765.867 598.721 766.043 599.635 766.395C600.557 766.738 601.245 767.266 601.698 767.977C602.151 768.688 602.378 769.594 602.378 770.695C602.378 771.602 602.214 772.359 601.885 772.969C601.557 773.57 601.128 774.059 600.596 774.434C600.065 774.809 599.499 775.098 598.897 775.301L603.596 783H601.276L597.081 775.852H593.518V783H591.526V765.867H596.155ZM596.038 767.59H593.518V774.164H596.237C597.635 774.164 598.663 773.879 599.319 773.309C599.983 772.738 600.315 771.898 600.315 770.789C600.315 769.625 599.964 768.801 599.26 768.316C598.565 767.832 597.491 767.59 596.038 767.59ZM607.511 770.156V783H605.566V770.156H607.511ZM606.562 765.352C606.882 765.352 607.155 765.457 607.382 765.668C607.616 765.871 607.734 766.191 607.734 766.629C607.734 767.059 607.616 767.379 607.382 767.59C607.155 767.801 606.882 767.906 606.562 767.906C606.226 767.906 605.944 767.801 605.718 767.59C605.499 767.379 605.39 767.059 605.39 766.629C605.39 766.191 605.499 765.871 605.718 765.668C605.944 765.457 606.226 765.352 606.562 765.352ZM613.98 783L609.105 770.156H611.191L614.015 777.926C614.211 778.457 614.41 779.043 614.613 779.684C614.816 780.324 614.957 780.84 615.035 781.23H615.117C615.211 780.84 615.367 780.324 615.586 779.684C615.804 779.035 616.004 778.449 616.183 777.926L619.007 770.156H621.093L616.207 783H613.98ZM627.621 769.922C628.715 769.922 629.652 770.164 630.434 770.648C631.215 771.133 631.813 771.812 632.227 772.688C632.641 773.555 632.848 774.57 632.848 775.734V776.941H623.977C624 778.449 624.375 779.598 625.102 780.387C625.828 781.176 626.852 781.57 628.172 781.57C628.984 781.57 629.703 781.496 630.328 781.348C630.953 781.199 631.602 780.98 632.274 780.691V782.402C631.625 782.691 630.981 782.902 630.34 783.035C629.707 783.168 628.957 783.234 628.09 783.234C626.856 783.234 625.777 782.984 624.856 782.484C623.941 781.977 623.231 781.234 622.723 780.258C622.215 779.281 621.961 778.086 621.961 776.672C621.961 775.289 622.191 774.094 622.652 773.086C623.121 772.07 623.777 771.289 624.621 770.742C625.473 770.195 626.473 769.922 627.621 769.922ZM627.598 771.516C626.559 771.516 625.731 771.855 625.113 772.535C624.496 773.215 624.129 774.164 624.012 775.383H630.809C630.801 774.617 630.68 773.945 630.445 773.367C630.219 772.781 629.871 772.328 629.402 772.008C628.934 771.68 628.332 771.516 627.598 771.516ZM641.508 769.922C641.766 769.922 642.036 769.938 642.317 769.969C642.598 769.992 642.848 770.027 643.067 770.074L642.821 771.879C642.61 771.824 642.376 771.781 642.118 771.75C641.86 771.719 641.618 771.703 641.391 771.703C640.876 771.703 640.387 771.809 639.926 772.02C639.473 772.223 639.075 772.52 638.731 772.91C638.387 773.293 638.118 773.758 637.922 774.305C637.727 774.844 637.629 775.445 637.629 776.109V783H635.672V770.156H637.29L637.501 772.523H637.583C637.848 772.047 638.169 771.613 638.544 771.223C638.919 770.824 639.352 770.508 639.844 770.273C640.344 770.039 640.899 769.922 641.508 769.922ZM653.321 779.484C653.321 780.305 653.114 780.996 652.7 781.559C652.294 782.113 651.708 782.531 650.942 782.812C650.185 783.094 649.278 783.234 648.224 783.234C647.325 783.234 646.548 783.164 645.892 783.023C645.235 782.883 644.661 782.684 644.169 782.426V780.633C644.692 780.891 645.317 781.125 646.044 781.336C646.771 781.547 647.513 781.652 648.271 781.652C649.38 781.652 650.185 781.473 650.685 781.113C651.185 780.754 651.435 780.266 651.435 779.648C651.435 779.297 651.333 778.988 651.13 778.723C650.935 778.449 650.603 778.188 650.134 777.938C649.665 777.68 649.017 777.398 648.188 777.094C647.368 776.781 646.657 776.473 646.056 776.168C645.462 775.855 645.001 775.477 644.673 775.031C644.353 774.586 644.192 774.008 644.192 773.297C644.192 772.211 644.63 771.379 645.505 770.801C646.388 770.215 647.544 769.922 648.974 769.922C649.747 769.922 650.47 770 651.142 770.156C651.821 770.305 652.454 770.508 653.04 770.766L652.384 772.324C651.853 772.098 651.286 771.906 650.685 771.75C650.083 771.594 649.47 771.516 648.845 771.516C647.946 771.516 647.255 771.664 646.771 771.961C646.294 772.258 646.056 772.664 646.056 773.18C646.056 773.578 646.165 773.906 646.384 774.164C646.61 774.422 646.97 774.664 647.462 774.891C647.954 775.117 648.603 775.383 649.407 775.688C650.212 775.984 650.907 776.293 651.493 776.613C652.079 776.926 652.528 777.309 652.841 777.762C653.161 778.207 653.321 778.781 653.321 779.484Z" fill="#00A89D"/>
<path d="M83.3854 422.41C83.3854 423.73 83.2174 424.934 82.8815 426.02C82.5455 427.098 82.0455 428.027 81.3815 428.809C80.7252 429.582 79.9088 430.18 78.9323 430.602C77.9557 431.023 76.8229 431.234 75.5338 431.234C74.2057 431.234 73.0455 431.023 72.0533 430.602C71.069 430.18 70.2487 429.578 69.5924 428.797C68.944 428.016 68.4557 427.082 68.1276 425.996C67.8073 424.91 67.6471 423.707 67.6471 422.387C67.6471 420.637 67.9362 419.102 68.5143 417.781C69.0924 416.461 69.9674 415.434 71.1393 414.699C72.319 413.965 73.7955 413.598 75.569 413.598C77.2643 413.598 78.6901 413.961 79.8463 414.688C81.0104 415.414 81.8893 416.438 82.483 417.758C83.0846 419.07 83.3854 420.621 83.3854 422.41ZM69.7448 422.41C69.7448 423.863 69.9518 425.121 70.3658 426.184C70.7799 427.246 71.4127 428.066 72.2643 428.645C73.1237 429.223 74.2135 429.512 75.5338 429.512C76.8619 429.512 77.9479 429.223 78.7916 428.645C79.6432 428.066 80.2721 427.246 80.6783 426.184C81.0846 425.121 81.2877 423.863 81.2877 422.41C81.2877 420.199 80.8229 418.473 79.8932 417.23C78.9713 415.98 77.5299 415.355 75.569 415.355C74.2408 415.355 73.1471 415.641 72.2877 416.211C71.4283 416.781 70.7877 417.594 70.3658 418.648C69.9518 419.695 69.7448 420.949 69.7448 422.41ZM90.0187 436.766C88.3312 436.766 87.0304 436.449 86.1163 435.816C85.2023 435.191 84.7452 434.312 84.7452 433.18C84.7452 432.375 84.9991 431.688 85.5069 431.117C86.0226 430.547 86.7335 430.168 87.6398 429.98C87.3038 429.824 87.0148 429.59 86.7726 429.277C86.5382 428.965 86.421 428.605 86.421 428.199C86.421 427.73 86.5499 427.32 86.8077 426.969C87.0733 426.609 87.4757 426.266 88.0148 425.938C87.3429 425.664 86.796 425.203 86.3741 424.555C85.9601 423.898 85.753 423.137 85.753 422.27C85.753 421.348 85.9444 420.562 86.3273 419.914C86.7101 419.258 87.2648 418.758 87.9913 418.414C88.7179 418.07 89.5968 417.898 90.628 417.898C90.8546 417.898 91.0812 417.91 91.3077 417.934C91.5421 417.949 91.7648 417.977 91.9757 418.016C92.1866 418.047 92.3702 418.086 92.5265 418.133H96.9327V419.387L94.5655 419.68C94.7999 419.984 94.9952 420.352 95.1515 420.781C95.3077 421.211 95.3858 421.688 95.3858 422.211C95.3858 423.492 94.9523 424.512 94.0851 425.27C93.2179 426.02 92.0265 426.395 90.5108 426.395C90.1515 426.395 89.7843 426.363 89.4093 426.301C89.0265 426.512 88.7335 426.746 88.5304 427.004C88.3351 427.262 88.2374 427.559 88.2374 427.895C88.2374 428.145 88.3116 428.344 88.4601 428.492C88.6163 428.641 88.839 428.75 89.128 428.82C89.4171 428.883 89.7648 428.914 90.171 428.914H92.4327C93.8312 428.914 94.9015 429.207 95.6437 429.793C96.3937 430.379 96.7687 431.234 96.7687 432.359C96.7687 433.781 96.1905 434.871 95.0343 435.629C93.878 436.387 92.2062 436.766 90.0187 436.766ZM90.0773 435.242C91.1398 435.242 92.0187 435.133 92.714 434.914C93.4171 434.703 93.9405 434.395 94.2843 433.988C94.6358 433.59 94.8116 433.113 94.8116 432.559C94.8116 432.043 94.6944 431.652 94.4601 431.387C94.2257 431.129 93.8819 430.957 93.4288 430.871C92.9757 430.777 92.421 430.73 91.7648 430.73H89.5382C88.9601 430.73 88.4562 430.82 88.0265 431C87.5968 431.18 87.2648 431.445 87.0304 431.797C86.8038 432.148 86.6905 432.586 86.6905 433.109C86.6905 433.805 86.9835 434.332 87.5694 434.691C88.1554 435.059 88.9913 435.242 90.0773 435.242ZM90.5812 424.977C91.5108 424.977 92.2101 424.742 92.6788 424.273C93.1476 423.805 93.3819 423.121 93.3819 422.223C93.3819 421.262 93.1437 420.543 92.6671 420.066C92.1905 419.582 91.4874 419.34 90.5577 419.34C89.6671 419.34 88.9796 419.59 88.4952 420.09C88.0187 420.582 87.7804 421.305 87.7804 422.258C87.7804 423.133 88.0226 423.805 88.5069 424.273C88.9913 424.742 89.6827 424.977 90.5812 424.977ZM109.589 418.156V431H107.996L107.714 429.195H107.609C107.343 429.641 107 430.016 106.578 430.32C106.156 430.625 105.679 430.852 105.148 431C104.625 431.156 104.066 431.234 103.472 431.234C102.457 431.234 101.605 431.07 100.918 430.742C100.23 430.414 99.7105 429.906 99.359 429.219C99.0152 428.531 98.8433 427.648 98.8433 426.57V418.156H100.812V426.43C100.812 427.5 101.054 428.301 101.539 428.832C102.023 429.355 102.761 429.617 103.754 429.617C104.707 429.617 105.464 429.438 106.027 429.078C106.597 428.719 107.007 428.191 107.257 427.496C107.507 426.793 107.632 425.934 107.632 424.918V418.156H109.589ZM119.305 417.922C120.828 417.922 121.981 418.297 122.762 419.047C123.543 419.789 123.934 420.984 123.934 422.633V431H122.012V422.762C122.012 421.691 121.766 420.891 121.274 420.359C120.789 419.828 120.043 419.562 119.035 419.562C117.613 419.562 116.613 419.965 116.035 420.77C115.457 421.574 115.168 422.742 115.168 424.273V431H113.223V418.156H114.793L115.086 420.008H115.191C115.465 419.555 115.813 419.176 116.234 418.871C116.656 418.559 117.129 418.324 117.652 418.168C118.176 418.004 118.727 417.922 119.305 417.922Z" fill="#00A89D"/>
<path d="M106.526 510V492.867H108.518V508.219H116.124V510H106.526ZM123.097 496.945C124.628 496.945 125.765 497.289 126.507 497.977C127.249 498.664 127.62 499.762 127.62 501.27V510H126.202L125.827 508.102H125.734C125.374 508.57 124.999 508.965 124.609 509.285C124.218 509.598 123.765 509.836 123.249 510C122.741 510.156 122.116 510.234 121.374 510.234C120.593 510.234 119.898 510.098 119.288 509.824C118.687 509.551 118.21 509.137 117.859 508.582C117.515 508.027 117.343 507.324 117.343 506.473C117.343 505.191 117.851 504.207 118.866 503.52C119.882 502.832 121.429 502.457 123.507 502.395L125.722 502.301V501.516C125.722 500.406 125.484 499.629 125.007 499.184C124.53 498.738 123.859 498.516 122.991 498.516C122.319 498.516 121.679 498.613 121.069 498.809C120.46 499.004 119.882 499.234 119.335 499.5L118.737 498.023C119.316 497.727 119.98 497.473 120.73 497.262C121.48 497.051 122.269 496.945 123.097 496.945ZM125.698 503.672L123.741 503.754C122.14 503.816 121.011 504.078 120.355 504.539C119.698 505 119.37 505.652 119.37 506.496C119.37 507.23 119.593 507.773 120.038 508.125C120.484 508.477 121.073 508.652 121.808 508.652C122.948 508.652 123.882 508.336 124.609 507.703C125.335 507.07 125.698 506.121 125.698 504.855V503.672ZM134.734 515.766C133.046 515.766 131.746 515.449 130.832 514.816C129.918 514.191 129.461 513.312 129.461 512.18C129.461 511.375 129.714 510.688 130.222 510.117C130.738 509.547 131.449 509.168 132.355 508.98C132.019 508.824 131.73 508.59 131.488 508.277C131.254 507.965 131.136 507.605 131.136 507.199C131.136 506.73 131.265 506.32 131.523 505.969C131.789 505.609 132.191 505.266 132.73 504.938C132.058 504.664 131.511 504.203 131.089 503.555C130.675 502.898 130.468 502.137 130.468 501.27C130.468 500.348 130.66 499.562 131.043 498.914C131.425 498.258 131.98 497.758 132.707 497.414C133.433 497.07 134.312 496.898 135.343 496.898C135.57 496.898 135.796 496.91 136.023 496.934C136.257 496.949 136.48 496.977 136.691 497.016C136.902 497.047 137.086 497.086 137.242 497.133H141.648V498.387L139.281 498.68C139.515 498.984 139.711 499.352 139.867 499.781C140.023 500.211 140.101 500.688 140.101 501.211C140.101 502.492 139.668 503.512 138.8 504.27C137.933 505.02 136.742 505.395 135.226 505.395C134.867 505.395 134.5 505.363 134.125 505.301C133.742 505.512 133.449 505.746 133.246 506.004C133.05 506.262 132.953 506.559 132.953 506.895C132.953 507.145 133.027 507.344 133.175 507.492C133.332 507.641 133.554 507.75 133.843 507.82C134.132 507.883 134.48 507.914 134.886 507.914H137.148C138.546 507.914 139.617 508.207 140.359 508.793C141.109 509.379 141.484 510.234 141.484 511.359C141.484 512.781 140.906 513.871 139.75 514.629C138.593 515.387 136.921 515.766 134.734 515.766ZM134.793 514.242C135.855 514.242 136.734 514.133 137.429 513.914C138.132 513.703 138.656 513.395 139 512.988C139.351 512.59 139.527 512.113 139.527 511.559C139.527 511.043 139.41 510.652 139.175 510.387C138.941 510.129 138.597 509.957 138.144 509.871C137.691 509.777 137.136 509.73 136.48 509.73H134.254C133.675 509.73 133.171 509.82 132.742 510C132.312 510.18 131.98 510.445 131.746 510.797C131.519 511.148 131.406 511.586 131.406 512.109C131.406 512.805 131.699 513.332 132.285 513.691C132.871 514.059 133.707 514.242 134.793 514.242ZM135.296 503.977C136.226 503.977 136.925 503.742 137.394 503.273C137.863 502.805 138.097 502.121 138.097 501.223C138.097 500.262 137.859 499.543 137.382 499.066C136.906 498.582 136.203 498.34 135.273 498.34C134.382 498.34 133.695 498.59 133.211 499.09C132.734 499.582 132.496 500.305 132.496 501.258C132.496 502.133 132.738 502.805 133.222 503.273C133.707 503.742 134.398 503.977 135.296 503.977ZM154.774 503.555C154.774 504.609 154.637 505.551 154.363 506.379C154.09 507.207 153.695 507.906 153.18 508.477C152.664 509.047 152.039 509.484 151.305 509.789C150.578 510.086 149.754 510.234 148.832 510.234C147.973 510.234 147.184 510.086 146.465 509.789C145.754 509.484 145.137 509.047 144.613 508.477C144.098 507.906 143.695 507.207 143.406 506.379C143.125 505.551 142.984 504.609 142.984 503.555C142.984 502.148 143.223 500.953 143.699 499.969C144.176 498.977 144.856 498.223 145.738 497.707C146.629 497.184 147.688 496.922 148.914 496.922C150.086 496.922 151.109 497.184 151.984 497.707C152.867 498.23 153.551 498.988 154.035 499.98C154.527 500.965 154.774 502.156 154.774 503.555ZM145 503.555C145 504.586 145.137 505.48 145.41 506.238C145.684 506.996 146.106 507.582 146.676 507.996C147.246 508.41 147.981 508.617 148.879 508.617C149.77 508.617 150.5 508.41 151.07 507.996C151.649 507.582 152.074 506.996 152.348 506.238C152.621 505.48 152.758 504.586 152.758 503.555C152.758 502.531 152.621 501.648 152.348 500.906C152.074 500.156 151.652 499.578 151.082 499.172C150.512 498.766 149.774 498.562 148.867 498.562C147.531 498.562 146.551 499.004 145.926 499.887C145.309 500.77 145 501.992 145 503.555ZM165.965 506.484C165.965 507.305 165.758 507.996 165.344 508.559C164.938 509.113 164.352 509.531 163.586 509.812C162.829 510.094 161.922 510.234 160.868 510.234C159.969 510.234 159.192 510.164 158.536 510.023C157.879 509.883 157.305 509.684 156.813 509.426V507.633C157.336 507.891 157.961 508.125 158.688 508.336C159.415 508.547 160.157 508.652 160.915 508.652C162.024 508.652 162.829 508.473 163.329 508.113C163.829 507.754 164.079 507.266 164.079 506.648C164.079 506.297 163.977 505.988 163.774 505.723C163.579 505.449 163.247 505.188 162.778 504.938C162.309 504.68 161.661 504.398 160.833 504.094C160.012 503.781 159.301 503.473 158.7 503.168C158.106 502.855 157.645 502.477 157.317 502.031C156.997 501.586 156.836 501.008 156.836 500.297C156.836 499.211 157.274 498.379 158.149 497.801C159.032 497.215 160.188 496.922 161.618 496.922C162.391 496.922 163.114 497 163.786 497.156C164.465 497.305 165.098 497.508 165.684 497.766L165.028 499.324C164.497 499.098 163.93 498.906 163.329 498.75C162.727 498.594 162.114 498.516 161.489 498.516C160.59 498.516 159.899 498.664 159.415 498.961C158.938 499.258 158.7 499.664 158.7 500.18C158.7 500.578 158.809 500.906 159.028 501.164C159.254 501.422 159.614 501.664 160.106 501.891C160.598 502.117 161.247 502.383 162.051 502.688C162.856 502.984 163.551 503.293 164.137 503.613C164.723 503.926 165.172 504.309 165.485 504.762C165.805 505.207 165.965 505.781 165.965 506.484Z" fill="#00A89D"/>
</svg>
